<mxfile host="65bd71144e">
    <diagram name="Page-1" id="aRkRuxBFELAMFq911tWw">
        <mxGraphModel dx="1896" dy="619" grid="1" gridSize="10" guides="1" tooltips="1" connect="1" arrows="1" fold="1" page="1" pageScale="1" pageWidth="850" pageHeight="1100" math="0" shadow="0">
            <root>
                <mxCell id="0"/>
                <mxCell id="1" parent="0"/>
                <mxCell id="ql4odA1ZGQbVucotu5OM-17" style="edgeStyle=orthogonalEdgeStyle;rounded=1;orthogonalLoop=1;jettySize=auto;html=1;exitX=1;exitY=0.5;exitDx=0;exitDy=0;exitPerimeter=0;curved=0;fillColor=#d5e8d4;strokeColor=#82b366;" parent="1" source="ql4odA1ZGQbVucotu5OM-2" target="ql4odA1ZGQbVucotu5OM-4" edge="1">
                    <mxGeometry relative="1" as="geometry">
                        <Array as="points">
                            <mxPoint x="470" y="410"/>
                            <mxPoint x="470" y="490"/>
                        </Array>
                    </mxGeometry>
                </mxCell>
                <mxCell id="ql4odA1ZGQbVucotu5OM-20" style="edgeStyle=orthogonalEdgeStyle;rounded=0;orthogonalLoop=1;jettySize=auto;html=1;exitX=0.5;exitY=1;exitDx=0;exitDy=0;exitPerimeter=0;startArrow=classic;startFill=1;fillColor=#e1d5e7;strokeColor=#9673a6;" parent="1" source="ql4odA1ZGQbVucotu5OM-2" target="ql4odA1ZGQbVucotu5OM-3" edge="1">
                    <mxGeometry relative="1" as="geometry"/>
                </mxCell>
                <mxCell id="ql4odA1ZGQbVucotu5OM-21" value="VRRP&lt;br&gt;advertisements" style="edgeLabel;html=1;align=center;verticalAlign=middle;resizable=0;points=[];labelBackgroundColor=none;" parent="ql4odA1ZGQbVucotu5OM-20" vertex="1" connectable="0">
                    <mxGeometry x="-0.0191" y="-2" relative="1" as="geometry">
                        <mxPoint x="-43" y="2" as="offset"/>
                    </mxGeometry>
                </mxCell>
                <mxCell id="2" style="edgeStyle=orthogonalEdgeStyle;html=1;exitX=0.5;exitY=1;exitDx=0;exitDy=0;exitPerimeter=0;rounded=1;curved=0;fillColor=#e1d5e7;strokeColor=#9673a6;" parent="1" source="ql4odA1ZGQbVucotu5OM-2" target="ql4odA1ZGQbVucotu5OM-4" edge="1">
                    <mxGeometry relative="1" as="geometry">
                        <Array as="points">
                            <mxPoint x="345" y="470"/>
                        </Array>
                    </mxGeometry>
                </mxCell>
                <mxCell id="5" style="edgeStyle=orthogonalEdgeStyle;html=1;exitX=0.5;exitY=1;exitDx=0;exitDy=0;exitPerimeter=0;fillColor=#e1d5e7;strokeColor=#9673a6;" parent="1" source="ql4odA1ZGQbVucotu5OM-2" target="ql4odA1ZGQbVucotu5OM-5" edge="1">
                    <mxGeometry relative="1" as="geometry">
                        <Array as="points">
                            <mxPoint x="345" y="470"/>
                            <mxPoint x="410" y="470"/>
                            <mxPoint x="410" y="630"/>
                        </Array>
                    </mxGeometry>
                </mxCell>
                <mxCell id="8" value="Health checks" style="edgeLabel;html=1;align=center;verticalAlign=middle;resizable=0;points=[];labelBackgroundColor=none;" parent="5" vertex="1" connectable="0">
                    <mxGeometry x="-0.4197" y="1" relative="1" as="geometry">
                        <mxPoint x="-1" y="-12" as="offset"/>
                    </mxGeometry>
                </mxCell>
                <mxCell id="ql4odA1ZGQbVucotu5OM-2" value="Active router" style="sketch=0;points=[[0.5,0,0],[1,0.5,0],[0.5,1,0],[0,0.5,0],[0.145,0.145,0],[0.8555,0.145,0],[0.855,0.8555,0],[0.145,0.855,0]];verticalLabelPosition=top;html=1;verticalAlign=bottom;aspect=fixed;align=center;pointerEvents=1;shape=mxgraph.cisco19.rect;prIcon=router;fillColor=none;strokeColor=#005073;labelPosition=center;" parent="1" vertex="1">
                    <mxGeometry x="320" y="385" width="50" height="50" as="geometry"/>
                </mxCell>
                <mxCell id="ql4odA1ZGQbVucotu5OM-16" style="edgeStyle=orthogonalEdgeStyle;rounded=1;orthogonalLoop=1;jettySize=auto;html=1;exitX=1;exitY=0.5;exitDx=0;exitDy=0;exitPerimeter=0;curved=0;dashed=1;dashPattern=8 8;fillColor=#ffe6cc;strokeColor=#d79b00;" parent="1" source="ql4odA1ZGQbVucotu5OM-3" target="ql4odA1ZGQbVucotu5OM-5" edge="1">
                    <mxGeometry relative="1" as="geometry">
                        <Array as="points">
                            <mxPoint x="470" y="690"/>
                            <mxPoint x="470" y="610"/>
                        </Array>
                    </mxGeometry>
                </mxCell>
                <mxCell id="3" style="edgeStyle=orthogonalEdgeStyle;html=1;exitX=0.5;exitY=0;exitDx=0;exitDy=0;exitPerimeter=0;fillColor=#e1d5e7;strokeColor=#9673a6;" parent="1" source="ql4odA1ZGQbVucotu5OM-3" target="ql4odA1ZGQbVucotu5OM-5" edge="1">
                    <mxGeometry relative="1" as="geometry">
                        <Array as="points">
                            <mxPoint x="345" y="630"/>
                        </Array>
                    </mxGeometry>
                </mxCell>
                <mxCell id="4" style="edgeStyle=orthogonalEdgeStyle;html=1;exitX=0.5;exitY=0;exitDx=0;exitDy=0;exitPerimeter=0;fillColor=#e1d5e7;strokeColor=#9673a6;" parent="1" source="ql4odA1ZGQbVucotu5OM-3" target="ql4odA1ZGQbVucotu5OM-4" edge="1">
                    <mxGeometry relative="1" as="geometry">
                        <Array as="points">
                            <mxPoint x="345" y="630"/>
                            <mxPoint x="410" y="630"/>
                            <mxPoint x="410" y="470"/>
                        </Array>
                    </mxGeometry>
                </mxCell>
                <mxCell id="9" value="Health checks" style="edgeLabel;html=1;align=center;verticalAlign=middle;resizable=0;points=[];labelBackgroundColor=none;" parent="4" vertex="1" connectable="0">
                    <mxGeometry x="-0.5951" y="-1" relative="1" as="geometry">
                        <mxPoint x="29" y="9" as="offset"/>
                    </mxGeometry>
                </mxCell>
                <mxCell id="19" style="edgeStyle=orthogonalEdgeStyle;html=1;exitX=1;exitY=0.5;exitDx=0;exitDy=0;exitPerimeter=0;dashed=1;dashPattern=8 8;fillColor=#ffe6cc;strokeColor=#d79b00;" parent="1" source="ql4odA1ZGQbVucotu5OM-3" target="ql4odA1ZGQbVucotu5OM-4" edge="1">
                    <mxGeometry relative="1" as="geometry">
                        <Array as="points">
                            <mxPoint x="470" y="690"/>
                            <mxPoint x="470" y="490"/>
                        </Array>
                    </mxGeometry>
                </mxCell>
                <mxCell id="ql4odA1ZGQbVucotu5OM-3" value="Backup router(s)" style="sketch=0;points=[[0.5,0,0],[1,0.5,0],[0.5,1,0],[0,0.5,0],[0.145,0.145,0],[0.8555,0.145,0],[0.855,0.8555,0],[0.145,0.855,0]];verticalLabelPosition=bottom;html=1;verticalAlign=top;aspect=fixed;align=center;pointerEvents=1;shape=mxgraph.cisco19.rect;prIcon=router;fillColor=none;strokeColor=#005073;" parent="1" vertex="1">
                    <mxGeometry x="320" y="665" width="50" height="50" as="geometry"/>
                </mxCell>
                <mxCell id="ql4odA1ZGQbVucotu5OM-18" style="edgeStyle=orthogonalEdgeStyle;rounded=1;orthogonalLoop=1;jettySize=auto;html=1;entryX=0.5;entryY=0;entryDx=0;entryDy=0;curved=0;fillColor=#d5e8d4;strokeColor=#82b366;" parent="1" source="ql4odA1ZGQbVucotu5OM-4" target="ql4odA1ZGQbVucotu5OM-6" edge="1">
                    <mxGeometry relative="1" as="geometry"/>
                </mxCell>
                <mxCell id="ql4odA1ZGQbVucotu5OM-19" style="edgeStyle=orthogonalEdgeStyle;rounded=1;orthogonalLoop=1;jettySize=auto;html=1;entryX=0.5;entryY=1;entryDx=0;entryDy=0;curved=0;fillColor=#d5e8d4;strokeColor=#82b366;" parent="1" source="ql4odA1ZGQbVucotu5OM-5" target="ql4odA1ZGQbVucotu5OM-6" edge="1">
                    <mxGeometry relative="1" as="geometry"/>
                </mxCell>
                <mxCell id="ql4odA1ZGQbVucotu5OM-5" value="VPN gateway N" style="sketch=0;pointerEvents=1;shadow=0;dashed=0;html=1;strokeColor=none;fillColor=light-dark(#005073, #b2b3b4);aspect=fixed;labelPosition=right;verticalLabelPosition=bottom;verticalAlign=top;align=left;outlineConnect=0;shape=mxgraph.vvd.vpn;" parent="1" vertex="1">
                    <mxGeometry x="500" y="595" width="50" height="50" as="geometry"/>
                </mxCell>
                <mxCell id="ql4odA1ZGQbVucotu5OM-6" value="Internet" style="image;aspect=fixed;perimeter=ellipsePerimeter;html=1;align=center;shadow=0;dashed=0;spacingTop=3;image=img/lib/active_directory/internet_cloud.svg;labelPosition=center;verticalLabelPosition=middle;verticalAlign=middle;labelBackgroundColor=none;" parent="1" vertex="1">
                    <mxGeometry x="600" y="505" width="150" height="94.5" as="geometry"/>
                </mxCell>
                <mxCell id="ql4odA1ZGQbVucotu5OM-8" style="rounded=0;orthogonalLoop=1;jettySize=auto;html=1;exitX=1;exitY=0.4;exitDx=0;exitDy=0;exitPerimeter=0;entryX=0.145;entryY=0.855;entryDx=0;entryDy=0;entryPerimeter=0;fillColor=#d5e8d4;strokeColor=#82b366;" parent="1" source="ql4odA1ZGQbVucotu5OM-11" target="ql4odA1ZGQbVucotu5OM-2" edge="1">
                    <mxGeometry relative="1" as="geometry">
                        <mxPoint x="209.25" y="525.75" as="sourcePoint"/>
                    </mxGeometry>
                </mxCell>
                <mxCell id="17" value="Egress request" style="edgeLabel;html=1;align=center;verticalAlign=middle;resizable=0;points=[];labelBackgroundColor=none;" parent="ql4odA1ZGQbVucotu5OM-8" vertex="1" connectable="0">
                    <mxGeometry x="-0.0811" y="-1" relative="1" as="geometry">
                        <mxPoint x="-25" y="-15" as="offset"/>
                    </mxGeometry>
                </mxCell>
                <mxCell id="ql4odA1ZGQbVucotu5OM-9" style="rounded=0;orthogonalLoop=1;jettySize=auto;html=1;exitX=1;exitY=0.4;exitDx=0;exitDy=0;exitPerimeter=0;entryX=0.145;entryY=0.145;entryDx=0;entryDy=0;entryPerimeter=0;endArrow=classic;endFill=1;dashed=1;dashPattern=8 8;fillColor=#ffe6cc;strokeColor=#d79b00;" parent="1" source="ql4odA1ZGQbVucotu5OM-11" target="ql4odA1ZGQbVucotu5OM-3" edge="1">
                    <mxGeometry relative="1" as="geometry">
                        <mxPoint x="209.25" y="574.25" as="sourcePoint"/>
                    </mxGeometry>
                </mxCell>
                <mxCell id="16" value="Egress request&lt;br&gt;(on failover only)" style="edgeLabel;html=1;align=center;verticalAlign=middle;resizable=0;points=[];labelBackgroundColor=none;" parent="ql4odA1ZGQbVucotu5OM-9" vertex="1" connectable="0">
                    <mxGeometry x="-0.0154" y="-1" relative="1" as="geometry">
                        <mxPoint x="-28" y="19" as="offset"/>
                    </mxGeometry>
                </mxCell>
                <mxCell id="ql4odA1ZGQbVucotu5OM-11" value="Client pod(s)&amp;nbsp;" style="points=[[0.03,0.03,0],[0.5,0,0],[0.97,0.03,0],[1,0.4,0],[0.97,0.745,0],[0.5,1,0],[0.03,0.745,0],[0,0.4,0]];verticalLabelPosition=middle;sketch=0;html=1;verticalAlign=middle;aspect=fixed;align=right;pointerEvents=1;shape=mxgraph.cisco19.workstation;fillColor=#005073;strokeColor=none;labelPosition=left;" parent="1" vertex="1">
                    <mxGeometry x="130" y="530" width="62.5" height="50" as="geometry"/>
                </mxCell>
                <mxCell id="11" style="edgeStyle=orthogonalEdgeStyle;html=1;fillColor=#d5e8d4;strokeColor=#82b366;entryX=0.5;entryY=0;entryDx=0;entryDy=0;entryPerimeter=0;jumpStyle=none;" parent="1" source="ql4odA1ZGQbVucotu5OM-4" target="ql4odA1ZGQbVucotu5OM-11" edge="1">
                    <mxGeometry relative="1" as="geometry">
                        <mxPoint x="513.75" y="445" as="sourcePoint"/>
                        <mxPoint x="150" y="520" as="targetPoint"/>
                        <Array as="points">
                            <mxPoint x="525" y="350"/>
                            <mxPoint x="161" y="350"/>
                            <mxPoint x="161" y="520"/>
                        </Array>
                    </mxGeometry>
                </mxCell>
                <mxCell id="14" value="Direct server return" style="edgeLabel;html=1;align=center;verticalAlign=middle;resizable=0;points=[];labelBackgroundColor=none;" parent="11" vertex="1" connectable="0">
                    <mxGeometry x="0.7697" relative="1" as="geometry">
                        <mxPoint x="59" y="-85" as="offset"/>
                    </mxGeometry>
                </mxCell>
                <mxCell id="13" style="edgeStyle=orthogonalEdgeStyle;html=1;entryX=0.5;entryY=1;entryDx=0;entryDy=0;entryPerimeter=0;fillColor=#d5e8d4;strokeColor=#82b366;" parent="1" source="ql4odA1ZGQbVucotu5OM-5" target="ql4odA1ZGQbVucotu5OM-11" edge="1">
                    <mxGeometry relative="1" as="geometry">
                        <Array as="points">
                            <mxPoint x="525" y="750"/>
                            <mxPoint x="161" y="750"/>
                        </Array>
                    </mxGeometry>
                </mxCell>
                <mxCell id="15" value="Direct server return" style="edgeLabel;html=1;align=center;verticalAlign=middle;resizable=0;points=[];labelBackgroundColor=none;" parent="13" vertex="1" connectable="0">
                    <mxGeometry x="0.7113" y="2" relative="1" as="geometry">
                        <mxPoint x="61" y="58" as="offset"/>
                    </mxGeometry>
                </mxCell>
                <mxCell id="ql4odA1ZGQbVucotu5OM-4" value="VPN gateway 1" style="sketch=0;pointerEvents=1;shadow=0;dashed=0;html=1;strokeColor=none;fillColor=light-dark(#005073, #b2b3b4);aspect=fixed;labelPosition=right;verticalLabelPosition=top;verticalAlign=bottom;align=left;outlineConnect=0;shape=mxgraph.vvd.vpn;" parent="1" vertex="1">
                    <mxGeometry x="500" y="455" width="50" height="50" as="geometry"/>
                </mxCell>
                <mxCell id="18" style="edgeStyle=orthogonalEdgeStyle;html=1;exitX=1;exitY=0.5;exitDx=0;exitDy=0;exitPerimeter=0;jumpStyle=gap;strokeColor=#82b366;fillColor=#d5e8d4;" parent="1" source="ql4odA1ZGQbVucotu5OM-2" target="ql4odA1ZGQbVucotu5OM-5" edge="1">
                    <mxGeometry relative="1" as="geometry">
                        <Array as="points">
                            <mxPoint x="470" y="410"/>
                            <mxPoint x="470" y="610"/>
                        </Array>
                    </mxGeometry>
                </mxCell>
                <mxCell id="20" value="Possible egress&lt;div&gt;routes&lt;/div&gt;" style="edgeLabel;html=1;align=center;verticalAlign=middle;resizable=0;points=[];labelBackgroundColor=none;" parent="18" vertex="1" connectable="0">
                    <mxGeometry x="0.377" relative="1" as="geometry">
                        <mxPoint x="50" y="13" as="offset"/>
                    </mxGeometry>
                </mxCell>
                <mxCell id="25" value="" style="group" parent="1" vertex="1" connectable="0">
                    <mxGeometry x="550" y="360" width="125" height="60" as="geometry"/>
                </mxCell>
                <mxCell id="21" value="" style="rounded=0;whiteSpace=wrap;html=1;labelBackgroundColor=none;fillColor=none;" parent="25" vertex="1">
                    <mxGeometry width="125" height="60" as="geometry"/>
                </mxCell>
                <mxCell id="22" value="Active traffic path" style="text;html=1;align=center;verticalAlign=middle;whiteSpace=wrap;rounded=0;fontColor=light-dark(#8EB06B,#8EB06B);" parent="25" vertex="1">
                    <mxGeometry x="12.5" y="10" width="100" height="10" as="geometry"/>
                </mxCell>
                <mxCell id="23" value="Backup traffic path" style="text;html=1;align=center;verticalAlign=middle;whiteSpace=wrap;rounded=0;fontColor=light-dark(#CD9D22,#CD9D22);" parent="25" vertex="1">
                    <mxGeometry x="7.5" y="25" width="110" height="10" as="geometry"/>
                </mxCell>
                <mxCell id="24" value="Route management" style="text;html=1;align=center;verticalAlign=middle;whiteSpace=wrap;rounded=0;fontColor=light-dark(#9076A4,#9076A4);" parent="25" vertex="1">
                    <mxGeometry x="7.5" y="40" width="110" height="10" as="geometry"/>
                </mxCell>
            </root>
        </mxGraphModel>
    </diagram>
</mxfile>